{
	"asset":{
		"generator":"Khronos glTF Blender I/O v4.3.47",
		"version":"2.0"
	},
	"scene":0,
	"scenes":[
		{
			"name":"Scene",
			"nodes":[
				0,
				1,
				2,
				3,
				4,
				5,
				6,
				7,
				8,
				9,
				10,
				11
			]
		}
	],
	"nodes":[
		{
			"mesh":0,
			"name":"Cylinder"
		},
		{
			"mesh":1,
			"name":"birch_texture.028"
		},
		{
			"mesh":2,
			"name":"branch.001"
		},
		{
			"mesh":3,
			"name":"branch.002"
		},
		{
			"mesh":4,
			"name":"branch.004"
		},
		{
			"mesh":5,
			"name":"branch.007"
		},
		{
			"mesh":6,
			"name":"branch.008"
		},
		{
			"mesh":7,
			"name":"branch.003"
		},
		{
			"mesh":8,
			"name":"birch_texture.005"
		},
		{
			"mesh":9,
			"name":"birch_texture.013"
		},
		{
			"mesh":10,
			"name":"birch_texture.006"
		},
		{
			"mesh":11,
			"name":"birch_texture.007"
		}
	],
	"materials":[
		{
			"alphaMode":"BLEND",
			"doubleSided":true,
			"name":"birch_texture",
			"pbrMetallicRoughness":{
				"baseColorTexture":{
					"index":0
				},
				"metallicFactor":0
			}
		}
	],
	"meshes":[
		{
			"name":"Cylinder",
			"primitives":[
				{
					"attributes":{
						"POSITION":0,
						"NORMAL":1,
						"TEXCOORD_0":2,
						"COLOR_0":3,
						"COLOR_1":4
					},
					"indices":5,
					"material":0
				}
			]
		},
		{
			"name":"birch_texture.051",
			"primitives":[
				{
					"attributes":{
						"POSITION":6,
						"NORMAL":7,
						"TEXCOORD_0":8
					},
					"indices":9,
					"material":0
				}
			]
		},
		{
			"name":"birch_texture.055",
			"primitives":[
				{
					"attributes":{
						"POSITION":10,
						"NORMAL":11,
						"TEXCOORD_0":12
					},
					"indices":13,
					"material":0
				}
			]
		},
		{
			"name":"birch_texture.022",
			"primitives":[
				{
					"attributes":{
						"POSITION":14,
						"NORMAL":15,
						"TEXCOORD_0":16
					},
					"indices":13,
					"material":0
				}
			]
		},
		{
			"name":"birch_texture.025",
			"primitives":[
				{
					"attributes":{
						"POSITION":17,
						"NORMAL":18,
						"TEXCOORD_0":19
					},
					"indices":13,
					"material":0
				}
			]
		},
		{
			"name":"birch_texture.023",
			"primitives":[
				{
					"attributes":{
						"POSITION":20,
						"NORMAL":21,
						"TEXCOORD_0":22
					},
					"indices":13,
					"material":0
				}
			]
		},
		{
			"name":"birch_texture.024",
			"primitives":[
				{
					"attributes":{
						"POSITION":23,
						"NORMAL":24,
						"TEXCOORD_0":25
					},
					"indices":13,
					"material":0
				}
			]
		},
		{
			"name":"birch_texture.057",
			"primitives":[
				{
					"attributes":{
						"POSITION":26,
						"NORMAL":27,
						"TEXCOORD_0":28
					},
					"indices":13,
					"material":0
				}
			]
		},
		{
			"name":"birch_texture.060",
			"primitives":[
				{
					"attributes":{
						"POSITION":29,
						"NORMAL":30,
						"TEXCOORD_0":31
					},
					"indices":32,
					"material":0
				}
			]
		},
		{
			"name":"birch_texture.067",
			"primitives":[
				{
					"attributes":{
						"POSITION":33,
						"NORMAL":34,
						"TEXCOORD_0":35
					},
					"indices":36,
					"material":0
				}
			]
		},
		{
			"name":"birch_texture.073",
			"primitives":[
				{
					"attributes":{
						"POSITION":37,
						"NORMAL":38,
						"TEXCOORD_0":39
					},
					"indices":36,
					"material":0
				}
			]
		},
		{
			"name":"birch_texture.074",
			"primitives":[
				{
					"attributes":{
						"POSITION":40,
						"NORMAL":41,
						"TEXCOORD_0":42
					},
					"indices":36,
					"material":0
				}
			]
		}
	],
	"textures":[
		{
			"sampler":0,
			"source":0
		}
	],
	"images":[
		{
			"mimeType":"image/png",
			"name":"birch_texture",
			"uri":"birch_texture.png"
		}
	],
	"accessors":[
		{
			"bufferView":0,
			"componentType":5126,
			"count":1034,
			"max":[
				2.8770716190338135,
				13.408567428588867,
				2.0952022075653076
			],
			"min":[
				-2.9320645332336426,
				-0.13215339183807373,
				-2.3979299068450928
			],
			"type":"VEC3"
		},
		{
			"bufferView":1,
			"componentType":5126,
			"count":1034,
			"type":"VEC3"
		},
		{
			"bufferView":2,
			"componentType":5126,
			"count":1034,
			"type":"VEC2"
		},
		{
			"bufferView":3,
			"componentType":5121,
			"count":1034,
			"normalized":true,
			"type":"VEC4"
		},
		{
			"bufferView":4,
			"componentType":5123,
			"count":1034,
			"normalized":true,
			"type":"VEC4"
		},
		{
			"bufferView":5,
			"componentType":5123,
			"count":1920,
			"type":"SCALAR"
		},
		{
			"bufferView":6,
			"componentType":5126,
			"count":228,
			"max":[
				4.402919292449951,
				15.25488567352295,
				3.495964527130127
			],
			"min":[
				-4.112191677093506,
				4.590817451477051,
				-4.562159538269043
			],
			"type":"VEC3"
		},
		{
			"bufferView":7,
			"componentType":5126,
			"count":228,
			"type":"VEC3"
		},
		{
			"bufferView":8,
			"componentType":5126,
			"count":228,
			"type":"VEC2"
		},
		{
			"bufferView":9,
			"componentType":5123,
			"count":342,
			"type":"SCALAR"
		},
		{
			"bufferView":10,
			"componentType":5126,
			"count":12,
			"max":[
				-0.03015407919883728,
				14.195568084716797,
				-1.0351697206497192
			],
			"min":[
				-1.231762170791626,
				12.767887115478516,
				-2.2497036457061768
			],
			"type":"VEC3"
		},
		{
			"bufferView":11,
			"componentType":5126,
			"count":12,
			"type":"VEC3"
		},
		{
			"bufferView":12,
			"componentType":5126,
			"count":12,
			"type":"VEC2"
		},
		{
			"bufferView":13,
			"componentType":5123,
			"count":18,
			"type":"SCALAR"
		},
		{
			"bufferView":14,
			"componentType":5126,
			"count":12,
			"max":[
				1.493567943572998,
				6.178713798522949,
				1.389204740524292
			],
			"min":[
				0.7534487247467041,
				4.907065391540527,
				0.22878852486610413
			],
			"type":"VEC3"
		},
		{
			"bufferView":15,
			"componentType":5126,
			"count":12,
			"type":"VEC3"
		},
		{
			"bufferView":16,
			"componentType":5126,
			"count":12,
			"type":"VEC2"
		},
		{
			"bufferView":17,
			"componentType":5126,
			"count":12,
			"max":[
				0.030360102653503418,
				8.73464298248291,
				-1.137192964553833
			],
			"min":[
				-1.4168686866760254,
				7.5134429931640625,
				-2.201113224029541
			],
			"type":"VEC3"
		},
		{
			"bufferView":18,
			"componentType":5126,
			"count":12,
			"type":"VEC3"
		},
		{
			"bufferView":19,
			"componentType":5126,
			"count":12,
			"type":"VEC2"
		},
		{
			"bufferView":20,
			"componentType":5126,
			"count":12,
			"max":[
				-0.6947060823440552,
				5.777581214904785,
				0.8284790515899658
			],
			"min":[
				-2.555321216583252,
				3.9352099895477295,
				-0.2964591681957245
			],
			"type":"VEC3"
		},
		{
			"bufferView":21,
			"componentType":5126,
			"count":12,
			"type":"VEC3"
		},
		{
			"bufferView":22,
			"componentType":5126,
			"count":12,
			"type":"VEC2"
		},
		{
			"bufferView":23,
			"componentType":5126,
			"count":12,
			"max":[
				3.369985580444336,
				10.581945419311523,
				1.3134448528289795
			],
			"min":[
				2.0063681602478027,
				9.572004318237305,
				-0.09421499818563461
			],
			"type":"VEC3"
		},
		{
			"bufferView":24,
			"componentType":5126,
			"count":12,
			"type":"VEC3"
		},
		{
			"bufferView":25,
			"componentType":5126,
			"count":12,
			"type":"VEC2"
		},
		{
			"bufferView":26,
			"componentType":5126,
			"count":12,
			"max":[
				0.4182259440422058,
				6.532639026641846,
				0.2196585237979889
			],
			"min":[
				-0.5141893625259399,
				4.7613420486450195,
				-0.5542491674423218
			],
			"type":"VEC3"
		},
		{
			"bufferView":27,
			"componentType":5126,
			"count":12,
			"type":"VEC3"
		},
		{
			"bufferView":28,
			"componentType":5126,
			"count":12,
			"type":"VEC2"
		},
		{
			"bufferView":29,
			"componentType":5126,
			"count":4,
			"max":[
				2.3476805686950684,
				7.046125411987305,
				0.6411037445068359
			],
			"min":[
				1.8174041509628296,
				5.810094833374023,
				-0.30298173427581787
			],
			"type":"VEC3"
		},
		{
			"bufferView":30,
			"componentType":5126,
			"count":4,
			"type":"VEC3"
		},
		{
			"bufferView":31,
			"componentType":5126,
			"count":4,
			"type":"VEC2"
		},
		{
			"bufferView":32,
			"componentType":5123,
			"count":6,
			"type":"SCALAR"
		},
		{
			"bufferView":33,
			"componentType":5126,
			"count":24,
			"max":[
				0.11409918963909149,
				6.755428314208984,
				-0.5893401503562927
			],
			"min":[
				-1.0669819116592407,
				4.226341247558594,
				-2.0435385704040527
			],
			"type":"VEC3"
		},
		{
			"bufferView":34,
			"componentType":5126,
			"count":24,
			"type":"VEC3"
		},
		{
			"bufferView":35,
			"componentType":5126,
			"count":24,
			"type":"VEC2"
		},
		{
			"bufferView":36,
			"componentType":5123,
			"count":36,
			"type":"SCALAR"
		},
		{
			"bufferView":37,
			"componentType":5126,
			"count":24,
			"max":[
				2.3997583389282227,
				6.353911399841309,
				0.5746473073959351
			],
			"min":[
				1.0570622682571411,
				3.644986629486084,
				-0.7564289569854736
			],
			"type":"VEC3"
		},
		{
			"bufferView":38,
			"componentType":5126,
			"count":24,
			"type":"VEC3"
		},
		{
			"bufferView":39,
			"componentType":5126,
			"count":24,
			"type":"VEC2"
		},
		{
			"bufferView":40,
			"componentType":5126,
			"count":24,
			"max":[
				-0.9974817037582397,
				6.528709888458252,
				1.6335539817810059
			],
			"min":[
				-1.8233790397644043,
				4.575014114379883,
				0.7003089189529419
			],
			"type":"VEC3"
		},
		{
			"bufferView":41,
			"componentType":5126,
			"count":24,
			"type":"VEC3"
		},
		{
			"bufferView":42,
			"componentType":5126,
			"count":24,
			"type":"VEC2"
		}
	],
	"bufferViews":[
		{
			"buffer":0,
			"byteLength":12408,
			"byteOffset":0,
			"target":34962
		},
		{
			"buffer":0,
			"byteLength":12408,
			"byteOffset":12408,
			"target":34962
		},
		{
			"buffer":0,
			"byteLength":8272,
			"byteOffset":24816,
			"target":34962
		},
		{
			"buffer":0,
			"byteLength":4136,
			"byteOffset":33088,
			"target":34962
		},
		{
			"buffer":0,
			"byteLength":8272,
			"byteOffset":37224,
			"target":34962
		},
		{
			"buffer":0,
			"byteLength":3840,
			"byteOffset":45496,
			"target":34963
		},
		{
			"buffer":0,
			"byteLength":2736,
			"byteOffset":49336,
			"target":34962
		},
		{
			"buffer":0,
			"byteLength":2736,
			"byteOffset":52072,
			"target":34962
		},
		{
			"buffer":0,
			"byteLength":1824,
			"byteOffset":54808,
			"target":34962
		},
		{
			"buffer":0,
			"byteLength":684,
			"byteOffset":56632,
			"target":34963
		},
		{
			"buffer":0,
			"byteLength":144,
			"byteOffset":57316,
			"target":34962
		},
		{
			"buffer":0,
			"byteLength":144,
			"byteOffset":57460,
			"target":34962
		},
		{
			"buffer":0,
			"byteLength":96,
			"byteOffset":57604,
			"target":34962
		},
		{
			"buffer":0,
			"byteLength":36,
			"byteOffset":57700,
			"target":34963
		},
		{
			"buffer":0,
			"byteLength":144,
			"byteOffset":57736,
			"target":34962
		},
		{
			"buffer":0,
			"byteLength":144,
			"byteOffset":57880,
			"target":34962
		},
		{
			"buffer":0,
			"byteLength":96,
			"byteOffset":58024,
			"target":34962
		},
		{
			"buffer":0,
			"byteLength":144,
			"byteOffset":58120,
			"target":34962
		},
		{
			"buffer":0,
			"byteLength":144,
			"byteOffset":58264,
			"target":34962
		},
		{
			"buffer":0,
			"byteLength":96,
			"byteOffset":58408,
			"target":34962
		},
		{
			"buffer":0,
			"byteLength":144,
			"byteOffset":58504,
			"target":34962
		},
		{
			"buffer":0,
			"byteLength":144,
			"byteOffset":58648,
			"target":34962
		},
		{
			"buffer":0,
			"byteLength":96,
			"byteOffset":58792,
			"target":34962
		},
		{
			"buffer":0,
			"byteLength":144,
			"byteOffset":58888,
			"target":34962
		},
		{
			"buffer":0,
			"byteLength":144,
			"byteOffset":59032,
			"target":34962
		},
		{
			"buffer":0,
			"byteLength":96,
			"byteOffset":59176,
			"target":34962
		},
		{
			"buffer":0,
			"byteLength":144,
			"byteOffset":59272,
			"target":34962
		},
		{
			"buffer":0,
			"byteLength":144,
			"byteOffset":59416,
			"target":34962
		},
		{
			"buffer":0,
			"byteLength":96,
			"byteOffset":59560,
			"target":34962
		},
		{
			"buffer":0,
			"byteLength":48,
			"byteOffset":59656,
			"target":34962
		},
		{
			"buffer":0,
			"byteLength":48,
			"byteOffset":59704,
			"target":34962
		},
		{
			"buffer":0,
			"byteLength":32,
			"byteOffset":59752,
			"target":34962
		},
		{
			"buffer":0,
			"byteLength":12,
			"byteOffset":59784,
			"target":34963
		},
		{
			"buffer":0,
			"byteLength":288,
			"byteOffset":59796,
			"target":34962
		},
		{
			"buffer":0,
			"byteLength":288,
			"byteOffset":60084,
			"target":34962
		},
		{
			"buffer":0,
			"byteLength":192,
			"byteOffset":60372,
			"target":34962
		},
		{
			"buffer":0,
			"byteLength":72,
			"byteOffset":60564,
			"target":34963
		},
		{
			"buffer":0,
			"byteLength":288,
			"byteOffset":60636,
			"target":34962
		},
		{
			"buffer":0,
			"byteLength":288,
			"byteOffset":60924,
			"target":34962
		},
		{
			"buffer":0,
			"byteLength":192,
			"byteOffset":61212,
			"target":34962
		},
		{
			"buffer":0,
			"byteLength":288,
			"byteOffset":61404,
			"target":34962
		},
		{
			"buffer":0,
			"byteLength":288,
			"byteOffset":61692,
			"target":34962
		},
		{
			"buffer":0,
			"byteLength":192,
			"byteOffset":61980,
			"target":34962
		}
	],
	"samplers":[
		{
			"magFilter":9728,
			"minFilter":9984,
			"wrapS":33071,
			"wrapT":33071
		}
	],
	"buffers":[
		{
			"byteLength":62172,
			"uri":"birch.bin"
		}
	]
}
